<?xml version="1.0" standalone="no"?>
<!DOCTYPE svg PUBLIC "-//W3C//DTD SVG 20010904//EN"
 "http://www.w3.org/TR/2001/REC-SVG-20010904/DTD/svg10.dtd">
<svg version="1.0" xmlns="http://www.w3.org/2000/svg"
 width="700.000000pt" height="700.000000pt" viewBox="0 0 700.000000 700.000000"
 preserveAspectRatio="xMidYMid meet">
<metadata>
Created by potrace 1.14, written by Peter Selinger 2001-2017
</metadata>
<g transform="translate(0.000000,700.000000) scale(0.100000,-0.100000)"
fill="#000000" stroke="none">
<path d="M1949 4941 c-26 -10 -57 -25 -70 -34 -13 -9 -299 -292 -636 -628
-457 -457 -617 -623 -634 -658 -32 -66 -32 -178 0 -243 33 -67 1235 -1269
1306 -1306 72 -37 178 -37 254 1 146 74 203 243 131 391 -13 28 -137 159 -365
386 -189 190 -345 348 -345 352 0 4 860 8 1910 7 1051 0 1910 -3 1910 -7 0 -4
-153 -160 -340 -346 -189 -189 -352 -360 -367 -385 -40 -68 -45 -179 -11 -253
73 -159 266 -223 413 -136 17 10 308 295 647 633 463 463 622 628 639 663 32
66 32 178 0 244 -32 65 -1235 1269 -1303 1304 -60 30 -148 38 -213 19 -165
-50 -252 -238 -183 -393 20 -45 83 -112 371 -401 191 -191 347 -351 347 -354
0 -4 -862 -7 -1917 -7 l-1916 0 356 357 c324 324 359 362 378 412 71 190 -51
380 -252 395 -46 3 -77 0 -110 -13z"/>
</g>
</svg>
